<svg xmlns="http://www.w3.org/2000/svg" viewBox="0 0 200 56" width="200" height="56" role="img" aria-label="Telegram">
  <defs>
    <style>
      .lbl { font-family: 'Helvetica Neue', Arial, sans-serif; font-weight: 600; letter-spacing: 0.5px; }
    </style>
    <linearGradient id="sweep" x1="0" y1="0" x2="1" y2="0">
      <stop offset="0%" stop-color="#22D3EE" stop-opacity="0"/>
      <stop offset="50%" stop-color="#22D3EE" stop-opacity="0.18"/>
      <stop offset="100%" stop-color="#22D3EE" stop-opacity="0"/>
      <animate attributeName="x1" values="-1;1" dur="4s" repeatCount="indefinite" calcMode="spline" keyTimes="0;1" keySplines="0.4 0 0.2 1"/>
      <animate attributeName="x2" values="0;2" dur="4s" repeatCount="indefinite" calcMode="spline" keyTimes="0;1" keySplines="0.4 0 0.2 1"/>
    </linearGradient>
    <clipPath id="r"><rect x="1" y="1" width="198" height="54" rx="27"/></clipPath>
  </defs>

  <rect x="1" y="1" width="198" height="54" rx="27" fill="#141416" stroke="#22D3EE" stroke-width="1" stroke-opacity="0.5">
    <animate attributeName="stroke-opacity" values="0.35;0.9;0.35" dur="3.2s" repeatCount="indefinite"/>
  </rect>
  <rect x="1" y="1" width="198" height="54" rx="27" fill="url(#sweep)" clip-path="url(#r)"/>

  <g transform="translate(40 28)" fill="#F5F4F2">
    <path transform="translate(-11 -10) scale(0.85)" d="M23.1 2.6 1.9 10.8c-1.3.5-1.3 1.3-.2 1.6l5.4 1.7 2.1 6.4c.3.7.1 1 .8 1 .5 0 .8-.2 1.1-.5l2.6-2.5 5.4 4c1 .5 1.7.3 1.9-.9l3.5-16.4c.3-1.5-.6-2.1-1.6-1.7Z" fill="#22D3EE"/>
  </g>
  <text x="78" y="28" dominant-baseline="middle" class="lbl" font-size="17" fill="#F5F4F2">Telegram</text>
</svg>
