<svg xmlns="http://www.w3.org/2000/svg" viewBox="0 0 200 56" width="200" height="56" role="img" aria-label="GitHub">
  <defs>
    <style>
      .lbl { font-family: 'Helvetica Neue', Arial, sans-serif; font-weight: 600; letter-spacing: 0.5px; }
    </style>
    <linearGradient id="sweep" x1="0" y1="0" x2="1" y2="0">
      <stop offset="0%" stop-color="#22D3EE" stop-opacity="0"/>
      <stop offset="50%" stop-color="#22D3EE" stop-opacity="0.18"/>
      <stop offset="100%" stop-color="#22D3EE" stop-opacity="0"/>
      <animate attributeName="x1" values="-1;1" dur="4s" repeatCount="indefinite" calcMode="spline" keyTimes="0;1" keySplines="0.4 0 0.2 1"/>
      <animate attributeName="x2" values="0;2" dur="4s" repeatCount="indefinite" calcMode="spline" keyTimes="0;1" keySplines="0.4 0 0.2 1"/>
    </linearGradient>
    <clipPath id="r"><rect x="1" y="1" width="198" height="54" rx="27"/></clipPath>
  </defs>

  <rect x="1" y="1" width="198" height="54" rx="27" fill="#141416" stroke="#22D3EE" stroke-width="1" stroke-opacity="0.5">
    <animate attributeName="stroke-opacity" values="0.35;0.9;0.35" dur="3.2s" repeatCount="indefinite"/>
  </rect>
  <rect x="1" y="1" width="198" height="54" rx="27" fill="url(#sweep)" clip-path="url(#r)"/>

  <g transform="translate(40 28)" fill="#F5F4F2">
    <path transform="translate(-11 -11) scale(0.92)" fill-rule="evenodd" clip-rule="evenodd" d="M12 .5C5.7.5.5 5.7.5 12c0 5.1 3.3 9.4 7.9 10.9.6.1.8-.3.8-.6v-2c-3.2.7-3.9-1.5-3.9-1.5-.5-1.3-1.3-1.7-1.3-1.7-1-.7.1-.7.1-.7 1.1.1 1.7 1.2 1.7 1.2 1 1.7 2.6 1.2 3.3.9.1-.7.4-1.2.7-1.5-2.6-.3-5.3-1.3-5.3-5.7 0-1.3.5-2.3 1.2-3.1-.1-.3-.5-1.5.1-3.1 0 0 1-.3 3.3 1.2a11.5 11.5 0 0 1 6 0c2.3-1.5 3.3-1.2 3.3-1.2.6 1.6.2 2.8.1 3.1.8.8 1.2 1.8 1.2 3.1 0 4.4-2.7 5.4-5.3 5.7.4.4.8 1.1.8 2.2v3.3c0 .3.2.7.8.6 4.6-1.5 7.9-5.8 7.9-10.9C23.5 5.7 18.3.5 12 .5Z" fill="#22D3EE"/>
  </g>
  <text x="78" y="28" dominant-baseline="middle" class="lbl" font-size="17" fill="#F5F4F2">GitHub</text>
</svg>
