<svg xmlns="http://www.w3.org/2000/svg" viewBox="0 0 1200 300" width="1200" height="300" role="img" aria-label="Lucas Tassi - Full-Stack Developer, London">
  <defs>
    <radialGradient id="vignette" cx="50%" cy="44%" r="75%">
      <stop offset="0%" stop-color="#141416"/>
      <stop offset="100%" stop-color="#0A0A0B"/>
    </radialGradient>

    <circle id="dot" r="1.1" fill="#8A8A8F" opacity="0.16"/>

    <linearGradient id="sheen" x1="0" y1="0" x2="1" y2="0">
      <stop offset="0%" stop-color="#F5F4F2"/>
      <stop offset="42%" stop-color="#F5F4F2"/>
      <stop offset="50%" stop-color="#22D3EE"/>
      <stop offset="58%" stop-color="#F5F4F2"/>
      <stop offset="100%" stop-color="#F5F4F2"/>
      <animate attributeName="x1" values="-1.2;1.0" dur="6s" repeatCount="indefinite" calcMode="spline" keyTimes="0;1" keySplines="0.4 0 0.2 1"/>
      <animate attributeName="x2" values="-0.2;2.0" dur="6s" repeatCount="indefinite" calcMode="spline" keyTimes="0;1" keySplines="0.4 0 0.2 1"/>
    </linearGradient>

    <style>
      .display { font-family: 'Arial Black', 'Helvetica Neue', Arial, sans-serif; }
      .sub { font-family: 'Helvetica Neue', Arial, sans-serif; }
    </style>
  </defs>

  <rect width="1200" height="300" fill="url(#vignette)"/>

  <g>
    <animateTransform attributeName="transform" type="translate" values="0 0; -40 -40; 0 0" dur="26s" repeatCount="indefinite" calcMode="spline" keyTimes="0;0.5;1" keySplines="0.4 0 0.6 1;0.4 0 0.6 1"/>
    <g>
      <use href="#dot" x="0" y="0"/><use href="#dot" x="40" y="0"/><use href="#dot" x="80" y="0"/><use href="#dot" x="120" y="0"/><use href="#dot" x="160" y="0"/><use href="#dot" x="200" y="0"/><use href="#dot" x="240" y="0"/><use href="#dot" x="280" y="0"/><use href="#dot" x="320" y="0"/><use href="#dot" x="360" y="0"/><use href="#dot" x="400" y="0"/><use href="#dot" x="440" y="0"/><use href="#dot" x="480" y="0"/><use href="#dot" x="520" y="0"/><use href="#dot" x="560" y="0"/><use href="#dot" x="600" y="0"/><use href="#dot" x="640" y="0"/><use href="#dot" x="680" y="0"/><use href="#dot" x="720" y="0"/><use href="#dot" x="760" y="0"/><use href="#dot" x="800" y="0"/><use href="#dot" x="840" y="0"/><use href="#dot" x="880" y="0"/><use href="#dot" x="920" y="0"/><use href="#dot" x="960" y="0"/><use href="#dot" x="1000" y="0"/><use href="#dot" x="1040" y="0"/><use href="#dot" x="1080" y="0"/><use href="#dot" x="1120" y="0"/><use href="#dot" x="1160" y="0"/><use href="#dot" x="1200" y="0"/><use href="#dot" x="1240" y="0"/>
      <use href="#dot" x="0" y="40"/><use href="#dot" x="40" y="40"/><use href="#dot" x="80" y="40"/><use href="#dot" x="120" y="40"/><use href="#dot" x="160" y="40"/><use href="#dot" x="200" y="40"/><use href="#dot" x="240" y="40"/><use href="#dot" x="280" y="40"/><use href="#dot" x="320" y="40"/><use href="#dot" x="360" y="40"/><use href="#dot" x="400" y="40"/><use href="#dot" x="440" y="40"/><use href="#dot" x="480" y="40"/><use href="#dot" x="520" y="40"/><use href="#dot" x="560" y="40"/><use href="#dot" x="600" y="40"/><use href="#dot" x="640" y="40"/><use href="#dot" x="680" y="40"/><use href="#dot" x="720" y="40"/><use href="#dot" x="760" y="40"/><use href="#dot" x="800" y="40"/><use href="#dot" x="840" y="40"/><use href="#dot" x="880" y="40"/><use href="#dot" x="920" y="40"/><use href="#dot" x="960" y="40"/><use href="#dot" x="1000" y="40"/><use href="#dot" x="1040" y="40"/><use href="#dot" x="1080" y="40"/><use href="#dot" x="1120" y="40"/><use href="#dot" x="1160" y="40"/><use href="#dot" x="1200" y="40"/><use href="#dot" x="1240" y="40"/>
      <use href="#dot" x="0" y="80"/><use href="#dot" x="40" y="80"/><use href="#dot" x="80" y="80"/><use href="#dot" x="120" y="80"/><use href="#dot" x="160" y="80"/><use href="#dot" x="200" y="80"/><use href="#dot" x="240" y="80"/><use href="#dot" x="280" y="80"/><use href="#dot" x="320" y="80"/><use href="#dot" x="360" y="80"/><use href="#dot" x="400" y="80"/><use href="#dot" x="440" y="80"/><use href="#dot" x="480" y="80"/><use href="#dot" x="520" y="80"/><use href="#dot" x="560" y="80"/><use href="#dot" x="600" y="80"/><use href="#dot" x="640" y="80"/><use href="#dot" x="680" y="80"/><use href="#dot" x="720" y="80"/><use href="#dot" x="760" y="80"/><use href="#dot" x="800" y="80"/><use href="#dot" x="840" y="80"/><use href="#dot" x="880" y="80"/><use href="#dot" x="920" y="80"/><use href="#dot" x="960" y="80"/><use href="#dot" x="1000" y="80"/><use href="#dot" x="1040" y="80"/><use href="#dot" x="1080" y="80"/><use href="#dot" x="1120" y="80"/><use href="#dot" x="1160" y="80"/><use href="#dot" x="1200" y="80"/><use href="#dot" x="1240" y="80"/>
      <use href="#dot" x="0" y="120"/><use href="#dot" x="40" y="120"/><use href="#dot" x="80" y="120"/><use href="#dot" x="120" y="120"/><use href="#dot" x="160" y="120"/><use href="#dot" x="200" y="120"/><use href="#dot" x="240" y="120"/><use href="#dot" x="280" y="120"/><use href="#dot" x="320" y="120"/><use href="#dot" x="360" y="120"/><use href="#dot" x="400" y="120"/><use href="#dot" x="440" y="120"/><use href="#dot" x="480" y="120"/><use href="#dot" x="520" y="120"/><use href="#dot" x="560" y="120"/><use href="#dot" x="600" y="120"/><use href="#dot" x="640" y="120"/><use href="#dot" x="680" y="120"/><use href="#dot" x="720" y="120"/><use href="#dot" x="760" y="120"/><use href="#dot" x="800" y="120"/><use href="#dot" x="840" y="120"/><use href="#dot" x="880" y="120"/><use href="#dot" x="920" y="120"/><use href="#dot" x="960" y="120"/><use href="#dot" x="1000" y="120"/><use href="#dot" x="1040" y="120"/><use href="#dot" x="1080" y="120"/><use href="#dot" x="1120" y="120"/><use href="#dot" x="1160" y="120"/><use href="#dot" x="1200" y="120"/><use href="#dot" x="1240" y="120"/>
      <use href="#dot" x="0" y="160"/><use href="#dot" x="40" y="160"/><use href="#dot" x="80" y="160"/><use href="#dot" x="120" y="160"/><use href="#dot" x="160" y="160"/><use href="#dot" x="200" y="160"/><use href="#dot" x="240" y="160"/><use href="#dot" x="280" y="160"/><use href="#dot" x="320" y="160"/><use href="#dot" x="360" y="160"/><use href="#dot" x="400" y="160"/><use href="#dot" x="440" y="160"/><use href="#dot" x="480" y="160"/><use href="#dot" x="520" y="160"/><use href="#dot" x="560" y="160"/><use href="#dot" x="600" y="160"/><use href="#dot" x="640" y="160"/><use href="#dot" x="680" y="160"/><use href="#dot" x="720" y="160"/><use href="#dot" x="760" y="160"/><use href="#dot" x="800" y="160"/><use href="#dot" x="840" y="160"/><use href="#dot" x="880" y="160"/><use href="#dot" x="920" y="160"/><use href="#dot" x="960" y="160"/><use href="#dot" x="1000" y="160"/><use href="#dot" x="1040" y="160"/><use href="#dot" x="1080" y="160"/><use href="#dot" x="1120" y="160"/><use href="#dot" x="1160" y="160"/><use href="#dot" x="1200" y="160"/><use href="#dot" x="1240" y="160"/>
      <use href="#dot" x="0" y="200"/><use href="#dot" x="40" y="200"/><use href="#dot" x="80" y="200"/><use href="#dot" x="120" y="200"/><use href="#dot" x="160" y="200"/><use href="#dot" x="200" y="200"/><use href="#dot" x="240" y="200"/><use href="#dot" x="280" y="200"/><use href="#dot" x="320" y="200"/><use href="#dot" x="360" y="200"/><use href="#dot" x="400" y="200"/><use href="#dot" x="440" y="200"/><use href="#dot" x="480" y="200"/><use href="#dot" x="520" y="200"/><use href="#dot" x="560" y="200"/><use href="#dot" x="600" y="200"/><use href="#dot" x="640" y="200"/><use href="#dot" x="680" y="200"/><use href="#dot" x="720" y="200"/><use href="#dot" x="760" y="200"/><use href="#dot" x="800" y="200"/><use href="#dot" x="840" y="200"/><use href="#dot" x="880" y="200"/><use href="#dot" x="920" y="200"/><use href="#dot" x="960" y="200"/><use href="#dot" x="1000" y="200"/><use href="#dot" x="1040" y="200"/><use href="#dot" x="1080" y="200"/><use href="#dot" x="1120" y="200"/><use href="#dot" x="1160" y="200"/><use href="#dot" x="1200" y="200"/><use href="#dot" x="1240" y="200"/>
      <use href="#dot" x="0" y="240"/><use href="#dot" x="40" y="240"/><use href="#dot" x="80" y="240"/><use href="#dot" x="120" y="240"/><use href="#dot" x="160" y="240"/><use href="#dot" x="200" y="240"/><use href="#dot" x="240" y="240"/><use href="#dot" x="280" y="240"/><use href="#dot" x="320" y="240"/><use href="#dot" x="360" y="240"/><use href="#dot" x="400" y="240"/><use href="#dot" x="440" y="240"/><use href="#dot" x="480" y="240"/><use href="#dot" x="520" y="240"/><use href="#dot" x="560" y="240"/><use href="#dot" x="600" y="240"/><use href="#dot" x="640" y="240"/><use href="#dot" x="680" y="240"/><use href="#dot" x="720" y="240"/><use href="#dot" x="760" y="240"/><use href="#dot" x="800" y="240"/><use href="#dot" x="840" y="240"/><use href="#dot" x="880" y="240"/><use href="#dot" x="920" y="240"/><use href="#dot" x="960" y="240"/><use href="#dot" x="1000" y="240"/><use href="#dot" x="1040" y="240"/><use href="#dot" x="1080" y="240"/><use href="#dot" x="1120" y="240"/><use href="#dot" x="1160" y="240"/><use href="#dot" x="1200" y="240"/><use href="#dot" x="1240" y="240"/>
      <use href="#dot" x="0" y="280"/><use href="#dot" x="40" y="280"/><use href="#dot" x="80" y="280"/><use href="#dot" x="120" y="280"/><use href="#dot" x="160" y="280"/><use href="#dot" x="200" y="280"/><use href="#dot" x="240" y="280"/><use href="#dot" x="280" y="280"/><use href="#dot" x="320" y="280"/><use href="#dot" x="360" y="280"/><use href="#dot" x="400" y="280"/><use href="#dot" x="440" y="280"/><use href="#dot" x="480" y="280"/><use href="#dot" x="520" y="280"/><use href="#dot" x="560" y="280"/><use href="#dot" x="600" y="280"/><use href="#dot" x="640" y="280"/><use href="#dot" x="680" y="280"/><use href="#dot" x="720" y="280"/><use href="#dot" x="760" y="280"/><use href="#dot" x="800" y="280"/><use href="#dot" x="840" y="280"/><use href="#dot" x="880" y="280"/><use href="#dot" x="920" y="280"/><use href="#dot" x="960" y="280"/><use href="#dot" x="1000" y="280"/><use href="#dot" x="1040" y="280"/><use href="#dot" x="1080" y="280"/><use href="#dot" x="1120" y="280"/><use href="#dot" x="1160" y="280"/><use href="#dot" x="1200" y="280"/><use href="#dot" x="1240" y="280"/>
      <use href="#dot" x="0" y="320"/><use href="#dot" x="40" y="320"/><use href="#dot" x="80" y="320"/><use href="#dot" x="120" y="320"/><use href="#dot" x="160" y="320"/><use href="#dot" x="200" y="320"/><use href="#dot" x="240" y="320"/><use href="#dot" x="280" y="320"/><use href="#dot" x="320" y="320"/><use href="#dot" x="360" y="320"/><use href="#dot" x="400" y="320"/><use href="#dot" x="440" y="320"/><use href="#dot" x="480" y="320"/><use href="#dot" x="520" y="320"/><use href="#dot" x="560" y="320"/><use href="#dot" x="600" y="320"/><use href="#dot" x="640" y="320"/><use href="#dot" x="680" y="320"/><use href="#dot" x="720" y="320"/><use href="#dot" x="760" y="320"/><use href="#dot" x="800" y="320"/><use href="#dot" x="840" y="320"/><use href="#dot" x="880" y="320"/><use href="#dot" x="920" y="320"/><use href="#dot" x="960" y="320"/><use href="#dot" x="1000" y="320"/><use href="#dot" x="1040" y="320"/><use href="#dot" x="1080" y="320"/><use href="#dot" x="1120" y="320"/><use href="#dot" x="1160" y="320"/><use href="#dot" x="1200" y="320"/><use href="#dot" x="1240" y="320"/>
    </g>
  </g>

  <rect x="0" y="0" width="1200" height="1" fill="#22D3EE" opacity="0.22"/>
  <rect x="0" y="299" width="1200" height="1" fill="#22D3EE" opacity="0.22"/>

  <text x="600" y="150" text-anchor="middle" class="display" font-size="104" font-weight="900" letter-spacing="-4" fill="url(#sheen)">LUCAS TASSI</text>

  <text x="600" y="205" text-anchor="middle" class="sub" font-size="22" font-weight="500" letter-spacing="6" fill="#8A8A8F">FULL-STACK DEVELOPER  ·  LONDON</text>

  <line x1="470" y1="222" x2="730" y2="222" stroke="#22D3EE" stroke-width="2" stroke-linecap="round" stroke-dasharray="260" stroke-dashoffset="260">
    <animate attributeName="stroke-dashoffset" values="260;0;0;260" keyTimes="0;0.35;0.85;1" dur="6s" repeatCount="indefinite" calcMode="spline" keySplines="0.4 0 0.2 1;0 0 1 1;0.4 0 0.2 1"/>
  </line>
</svg>
