<svg xmlns="http://www.w3.org/2000/svg" viewBox="0 0 1200 300" width="1200" height="300" role="img" aria-label="Lucas Tassi - Full-Stack Developer, London"><defs><radialGradient id="vig" cx="50%" cy="42%" r="75%"><stop offset="0%" stop-color="#141416"/><stop offset="100%" stop-color="#0A0A0B"/></radialGradient><circle id="d" r="1.1" fill="#8A8A8F" opacity="0.16"/><linearGradient id="sh" x1="0" y1="0" x2="1" y2="0"><stop offset="0%" stop-color="#F5F4F2"/><stop offset="42%" stop-color="#F5F4F2"/><stop offset="50%" stop-color="#22D3EE"/><stop offset="58%" stop-color="#F5F4F2"/><stop offset="100%" stop-color="#F5F4F2"/><animate attributeName="x1" values="-1.2;1.0" dur="6s" repeatCount="indefinite" calcMode="spline" keyTimes="0;1" keySplines="0.4 0 0.2 1"/><animate attributeName="x2" values="-0.2;2.0" dur="6s" repeatCount="indefinite" calcMode="spline" keyTimes="0;1" keySplines="0.4 0 0.2 1"/></linearGradient><style>.n{font-family:'Arial Black','Helvetica Neue',Arial,sans-serif}</style></defs><rect width="1200" height="300" fill="url(#vig)"/><g><animateTransform attributeName="transform" type="translate" values="0 0;-36 -36;0 0" dur="24s" repeatCount="indefinite" calcMode="spline" keyTimes="0;0.5;1" keySplines="0.4 0 0.6 1;0.4 0 0.6 1"/><g transform="translate(0,0)"><use href="#d" x="0" y="0"/><use href="#d" x="36" y="0"/><use href="#d" x="72" y="0"/><use href="#d" x="108" y="0"/><use href="#d" x="144" y="0"/><use href="#d" x="180" y="0"/><use href="#d" x="216" y="0"/><use href="#d" x="252" y="0"/><use href="#d" x="288" y="0"/><use href="#d" x="324" y="0"/><use href="#d" x="360" y="0"/><use href="#d" x="396" y="0"/><use href="#d" x="432" y="0"/><use href="#d" x="468" y="0"/><use href="#d" x="504" y="0"/><use href="#d" x="540" y="0"/><use href="#d" x="576" y="0"/><use href="#d" x="612" y="0"/><use href="#d" x="648" y="0"/><use href="#d" x="684" y="0"/><use href="#d" x="720" y="0"/><use href="#d" x="756" y="0"/><use href="#d" x="792" y="0"/><use href="#d" x="828" y="0"/><use href="#d" x="864" y="0"/><use href="#d" x="900" y="0"/><use href="#d" x="936" y="0"/><use href="#d" x="972" y="0"/><use href="#d" x="1008" y="0"/><use href="#d" x="1044" y="0"/><use href="#d" x="1080" y="0"/><use href="#d" x="1116" y="0"/><use href="#d" x="1152" y="0"/><use href="#d" x="1188" y="0"/><use href="#d" x="1224" y="0"/></g><g transform="translate(0,36)"><use href="#d" x="0" y="0"/><use href="#d" x="36" y="0"/><use href="#d" x="72" y="0"/><use href="#d" x="108" y="0"/><use href="#d" x="144" y="0"/><use href="#d" x="180" y="0"/><use href="#d" x="216" y="0"/><use href="#d" x="252" y="0"/><use href="#d" x="288" y="0"/><use href="#d" x="324" y="0"/><use href="#d" x="360" y="0"/><use href="#d" x="396" y="0"/><use href="#d" x="432" y="0"/><use href="#d" x="468" y="0"/><use href="#d" x="504" y="0"/><use href="#d" x="540" y="0"/><use href="#d" x="576" y="0"/><use href="#d" x="612" y="0"/><use href="#d" x="648" y="0"/><use href="#d" x="684" y="0"/><use href="#d" x="720" y="0"/><use href="#d" x="756" y="0"/><use href="#d" x="792" y="0"/><use href="#d" x="828" y="0"/><use href="#d" x="864" y="0"/><use href="#d" x="900" y="0"/><use href="#d" x="936" y="0"/><use href="#d" x="972" y="0"/><use href="#d" x="1008" y="0"/><use href="#d" x="1044" y="0"/><use href="#d" x="1080" y="0"/><use href="#d" x="1116" y="0"/><use href="#d" x="1152" y="0"/><use href="#d" x="1188" y="0"/><use href="#d" x="1224" y="0"/></g><g transform="translate(0,72)"><use href="#d" x="0" y="0"/><use href="#d" x="36" y="0"/><use href="#d" x="72" y="0"/><use href="#d" x="108" y="0"/><use href="#d" x="144" y="0"/><use href="#d" x="180" y="0"/><use href="#d" x="216" y="0"/><use href="#d" x="252" y="0"/><use href="#d" x="288" y="0"/><use href="#d" x="324" y="0"/><use href="#d" x="360" y="0"/><use href="#d" x="396" y="0"/><use href="#d" x="432" y="0"/><use href="#d" x="468" y="0"/><use href="#d" x="504" y="0"/><use href="#d" x="540" y="0"/><use href="#d" x="576" y="0"/><use href="#d" x="612" y="0"/><use href="#d" x="648" y="0"/><use href="#d" x="684" y="0"/><use href="#d" x="720" y="0"/><use href="#d" x="756" y="0"/><use href="#d" x="792" y="0"/><use href="#d" x="828" y="0"/><use href="#d" x="864" y="0"/><use href="#d" x="900" y="0"/><use href="#d" x="936" y="0"/><use href="#d" x="972" y="0"/><use href="#d" x="1008" y="0"/><use href="#d" x="1044" y="0"/><use href="#d" x="1080" y="0"/><use href="#d" x="1116" y="0"/><use href="#d" x="1152" y="0"/><use href="#d" x="1188" y="0"/><use href="#d" x="1224" y="0"/></g><g transform="translate(0,108)"><use href="#d" x="0" y="0"/><use href="#d" x="36" y="0"/><use href="#d" x="72" y="0"/><use href="#d" x="108" y="0"/><use href="#d" x="144" y="0"/><use href="#d" x="180" y="0"/><use href="#d" x="216" y="0"/><use href="#d" x="252" y="0"/><use href="#d" x="288" y="0"/><use href="#d" x="324" y="0"/><use href="#d" x="360" y="0"/><use href="#d" x="396" y="0"/><use href="#d" x="432" y="0"/><use href="#d" x="468" y="0"/><use href="#d" x="504" y="0"/><use href="#d" x="540" y="0"/><use href="#d" x="576" y="0"/><use href="#d" x="612" y="0"/><use href="#d" x="648" y="0"/><use href="#d" x="684" y="0"/><use href="#d" x="720" y="0"/><use href="#d" x="756" y="0"/><use href="#d" x="792" y="0"/><use href="#d" x="828" y="0"/><use href="#d" x="864" y="0"/><use href="#d" x="900" y="0"/><use href="#d" x="936" y="0"/><use href="#d" x="972" y="0"/><use href="#d" x="1008" y="0"/><use href="#d" x="1044" y="0"/><use href="#d" x="1080" y="0"/><use href="#d" x="1116" y="0"/><use href="#d" x="1152" y="0"/><use href="#d" x="1188" y="0"/><use href="#d" x="1224" y="0"/></g><g transform="translate(0,144)"><use href="#d" x="0" y="0"/><use href="#d" x="36" y="0"/><use href="#d" x="72" y="0"/><use href="#d" x="108" y="0"/><use href="#d" x="144" y="0"/><use href="#d" x="180" y="0"/><use href="#d" x="216" y="0"/><use href="#d" x="252" y="0"/><use href="#d" x="288" y="0"/><use href="#d" x="324" y="0"/><use href="#d" x="360" y="0"/><use href="#d" x="396" y="0"/><use href="#d" x="432" y="0"/><use href="#d" x="468" y="0"/><use href="#d" x="504" y="0"/><use href="#d" x="540" y="0"/><use href="#d" x="576" y="0"/><use href="#d" x="612" y="0"/><use href="#d" x="648" y="0"/><use href="#d" x="684" y="0"/><use href="#d" x="720" y="0"/><use href="#d" x="756" y="0"/><use href="#d" x="792" y="0"/><use href="#d" x="828" y="0"/><use href="#d" x="864" y="0"/><use href="#d" x="900" y="0"/><use href="#d" x="936" y="0"/><use href="#d" x="972" y="0"/><use href="#d" x="1008" y="0"/><use href="#d" x="1044" y="0"/><use href="#d" x="1080" y="0"/><use href="#d" x="1116" y="0"/><use href="#d" x="1152" y="0"/><use href="#d" x="1188" y="0"/><use href="#d" x="1224" y="0"/></g><g transform="translate(0,180)"><use href="#d" x="0" y="0"/><use href="#d" x="36" y="0"/><use href="#d" x="72" y="0"/><use href="#d" x="108" y="0"/><use href="#d" x="144" y="0"/><use href="#d" x="180" y="0"/><use href="#d" x="216" y="0"/><use href="#d" x="252" y="0"/><use href="#d" x="288" y="0"/><use href="#d" x="324" y="0"/><use href="#d" x="360" y="0"/><use href="#d" x="396" y="0"/><use href="#d" x="432" y="0"/><use href="#d" x="468" y="0"/><use href="#d" x="504" y="0"/><use href="#d" x="540" y="0"/><use href="#d" x="576" y="0"/><use href="#d" x="612" y="0"/><use href="#d" x="648" y="0"/><use href="#d" x="684" y="0"/><use href="#d" x="720" y="0"/><use href="#d" x="756" y="0"/><use href="#d" x="792" y="0"/><use href="#d" x="828" y="0"/><use href="#d" x="864" y="0"/><use href="#d" x="900" y="0"/><use href="#d" x="936" y="0"/><use href="#d" x="972" y="0"/><use href="#d" x="1008" y="0"/><use href="#d" x="1044" y="0"/><use href="#d" x="1080" y="0"/><use href="#d" x="1116" y="0"/><use href="#d" x="1152" y="0"/><use href="#d" x="1188" y="0"/><use href="#d" x="1224" y="0"/></g><g transform="translate(0,216)"><use href="#d" x="0" y="0"/><use href="#d" x="36" y="0"/><use href="#d" x="72" y="0"/><use href="#d" x="108" y="0"/><use href="#d" x="144" y="0"/><use href="#d" x="180" y="0"/><use href="#d" x="216" y="0"/><use href="#d" x="252" y="0"/><use href="#d" x="288" y="0"/><use href="#d" x="324" y="0"/><use href="#d" x="360" y="0"/><use href="#d" x="396" y="0"/><use href="#d" x="432" y="0"/><use href="#d" x="468" y="0"/><use href="#d" x="504" y="0"/><use href="#d" x="540" y="0"/><use href="#d" x="576" y="0"/><use href="#d" x="612" y="0"/><use href="#d" x="648" y="0"/><use href="#d" x="684" y="0"/><use href="#d" x="720" y="0"/><use href="#d" x="756" y="0"/><use href="#d" x="792" y="0"/><use href="#d" x="828" y="0"/><use href="#d" x="864" y="0"/><use href="#d" x="900" y="0"/><use href="#d" x="936" y="0"/><use href="#d" x="972" y="0"/><use href="#d" x="1008" y="0"/><use href="#d" x="1044" y="0"/><use href="#d" x="1080" y="0"/><use href="#d" x="1116" y="0"/><use href="#d" x="1152" y="0"/><use href="#d" x="1188" y="0"/><use href="#d" x="1224" y="0"/></g><g transform="translate(0,252)"><use href="#d" x="0" y="0"/><use href="#d" x="36" y="0"/><use href="#d" x="72" y="0"/><use href="#d" x="108" y="0"/><use href="#d" x="144" y="0"/><use href="#d" x="180" y="0"/><use href="#d" x="216" y="0"/><use href="#d" x="252" y="0"/><use href="#d" x="288" y="0"/><use href="#d" x="324" y="0"/><use href="#d" x="360" y="0"/><use href="#d" x="396" y="0"/><use href="#d" x="432" y="0"/><use href="#d" x="468" y="0"/><use href="#d" x="504" y="0"/><use href="#d" x="540" y="0"/><use href="#d" x="576" y="0"/><use href="#d" x="612" y="0"/><use href="#d" x="648" y="0"/><use href="#d" x="684" y="0"/><use href="#d" x="720" y="0"/><use href="#d" x="756" y="0"/><use href="#d" x="792" y="0"/><use href="#d" x="828" y="0"/><use href="#d" x="864" y="0"/><use href="#d" x="900" y="0"/><use href="#d" x="936" y="0"/><use href="#d" x="972" y="0"/><use href="#d" x="1008" y="0"/><use href="#d" x="1044" y="0"/><use href="#d" x="1080" y="0"/><use href="#d" x="1116" y="0"/><use href="#d" x="1152" y="0"/><use href="#d" x="1188" y="0"/><use href="#d" x="1224" y="0"/></g><g transform="translate(0,288)"><use href="#d" x="0" y="0"/><use href="#d" x="36" y="0"/><use href="#d" x="72" y="0"/><use href="#d" x="108" y="0"/><use href="#d" x="144" y="0"/><use href="#d" x="180" y="0"/><use href="#d" x="216" y="0"/><use href="#d" x="252" y="0"/><use href="#d" x="288" y="0"/><use href="#d" x="324" y="0"/><use href="#d" x="360" y="0"/><use href="#d" x="396" y="0"/><use href="#d" x="432" y="0"/><use href="#d" x="468" y="0"/><use href="#d" x="504" y="0"/><use href="#d" x="540" y="0"/><use href="#d" x="576" y="0"/><use href="#d" x="612" y="0"/><use href="#d" x="648" y="0"/><use href="#d" x="684" y="0"/><use href="#d" x="720" y="0"/><use href="#d" x="756" y="0"/><use href="#d" x="792" y="0"/><use href="#d" x="828" y="0"/><use href="#d" x="864" y="0"/><use href="#d" x="900" y="0"/><use href="#d" x="936" y="0"/><use href="#d" x="972" y="0"/><use href="#d" x="1008" y="0"/><use href="#d" x="1044" y="0"/><use href="#d" x="1080" y="0"/><use href="#d" x="1116" y="0"/><use href="#d" x="1152" y="0"/><use href="#d" x="1188" y="0"/><use href="#d" x="1224" y="0"/></g><g transform="translate(0,324)"><use href="#d" x="0" y="0"/><use href="#d" x="36" y="0"/><use href="#d" x="72" y="0"/><use href="#d" x="108" y="0"/><use href="#d" x="144" y="0"/><use href="#d" x="180" y="0"/><use href="#d" x="216" y="0"/><use href="#d" x="252" y="0"/><use href="#d" x="288" y="0"/><use href="#d" x="324" y="0"/><use href="#d" x="360" y="0"/><use href="#d" x="396" y="0"/><use href="#d" x="432" y="0"/><use href="#d" x="468" y="0"/><use href="#d" x="504" y="0"/><use href="#d" x="540" y="0"/><use href="#d" x="576" y="0"/><use href="#d" x="612" y="0"/><use href="#d" x="648" y="0"/><use href="#d" x="684" y="0"/><use href="#d" x="720" y="0"/><use href="#d" x="756" y="0"/><use href="#d" x="792" y="0"/><use href="#d" x="828" y="0"/><use href="#d" x="864" y="0"/><use href="#d" x="900" y="0"/><use href="#d" x="936" y="0"/><use href="#d" x="972" y="0"/><use href="#d" x="1008" y="0"/><use href="#d" x="1044" y="0"/><use href="#d" x="1080" y="0"/><use href="#d" x="1116" y="0"/><use href="#d" x="1152" y="0"/><use href="#d" x="1188" y="0"/><use href="#d" x="1224" y="0"/></g></g><rect x="0" y="0" width="1200" height="1" fill="#22D3EE" opacity="0.22"/><rect x="0" y="299" width="1200" height="1" fill="#22D3EE" opacity="0.22"/><text x="600" y="150" text-anchor="middle" class="n" font-size="104" font-weight="900" letter-spacing="-4" fill="url(#sh)">LUCAS TASSI</text><text x="600" y="205" text-anchor="middle" font-family="'Helvetica Neue',Arial,sans-serif" font-size="22" font-weight="500" letter-spacing="6" fill="#8A8A8F">FULL-STACK DEVELOPER  &#183;  LONDON</text><line x1="475" y1="222" x2="725" y2="222" stroke="#22D3EE" stroke-width="2" stroke-linecap="round" stroke-dasharray="250" stroke-dashoffset="250"><animate attributeName="stroke-dashoffset" values="250;0;0;250" keyTimes="0;0.35;0.85;1" dur="6s" repeatCount="indefinite" calcMode="spline" keySplines="0.4 0 0.2 1;0 0 1 1;0.4 0 0.2 1"/></line></svg>
